<svg width="49" height="51" viewBox="0 0 49 51" fill="none" xmlns="http://www.w3.org/2000/svg">
<g filter="url(#filter0_d_1207_406)">
<path d="M39.2293 0H9.77075C8.24025 0 6.77244 0.637646 5.69021 1.77266C4.60799 2.90768 4 4.44709 4 6.05225V36.9478C4 38.5529 4.60799 40.0923 5.69021 41.2273C6.77244 42.3624 8.24025 43 9.77075 43H39.2293C40.7597 43 42.2276 42.3624 43.3098 41.2273C44.392 40.0923 45 38.5529 45 36.9478V6.05225C45 5.25746 44.8507 4.47045 44.5607 3.73615C44.2707 3.00186 43.8456 2.33467 43.3098 1.77266C42.7739 1.21066 42.1378 0.764854 41.4376 0.4607C40.7375 0.156546 39.9871 0 39.2293 0ZM17.6684 34.3597C17.6684 34.4672 17.5992 34.6284 17.4634 34.8461C17.2584 34.9912 17.1046 35.0611 17.0021 35.0611H12.2615C12.159 35.0611 12.0052 34.9912 11.8002 34.8461C11.6593 34.6311 11.5901 34.4699 11.5901 34.3624V16.9017C11.5901 16.7942 11.6593 16.6329 11.7951 16.4179C12.0001 16.2728 12.1539 16.2029 12.2589 16.2029H16.9996C17.1021 16.2029 17.2558 16.2728 17.4608 16.4179C17.5992 16.6329 17.6684 16.7942 17.6684 16.9017V34.3543V34.3597ZM16.8996 13.2359C16.6045 13.5518 16.2508 13.8008 15.8603 13.9677C15.4698 14.1346 15.0508 14.2157 14.6293 14.2061C13.7349 14.2061 12.9816 13.8836 12.3614 13.2332C12.06 12.9244 11.8222 12.5539 11.6626 12.1448C11.5031 11.7358 11.4252 11.2967 11.4338 10.8548C11.4338 9.9545 11.7439 9.1805 12.3614 8.53281C12.6528 8.20858 13.0042 7.95023 13.3942 7.77365C13.7842 7.59707 14.2045 7.50599 14.6293 7.50599C15.054 7.50599 15.4743 7.59707 15.8643 7.77365C16.2543 7.95023 16.6058 8.20858 16.8971 8.53281C17.5121 9.17781 17.8221 9.95719 17.8221 10.8548C17.8221 11.7954 17.5146 12.5882 16.8996 13.2359ZM37.8122 34.3597C37.8115 34.4512 37.793 34.5415 37.7577 34.6252C37.7225 34.7088 37.6712 34.784 37.6072 34.8461C37.5481 34.9127 37.4768 34.9661 37.3975 35.0031C37.3182 35.04 37.2327 35.0598 37.1459 35.0611H32.3028C32.2003 35.0611 32.0466 34.9912 31.8416 34.8461C31.7006 34.6311 31.6314 34.4699 31.6314 34.3624V23.7172C31.6314 22.8115 31.4777 22.1101 31.1702 21.6048C30.7884 21.1748 30.1708 20.9598 29.3124 20.9598C28.2131 20.9598 27.4238 21.2984 26.9421 21.9838C26.4962 22.6691 26.2758 23.6419 26.2758 24.9024V34.357C26.275 34.4484 26.2564 34.5388 26.2212 34.6224C26.1859 34.706 26.1347 34.7813 26.0708 34.8434C26.0109 34.9112 25.9384 34.9652 25.8577 35.0022C25.777 35.0392 25.6899 35.0583 25.6019 35.0584H20.8613C20.7588 35.0584 20.605 34.9886 20.4 34.8434C20.2616 34.6284 20.195 34.4672 20.195 34.3597V16.9017C20.195 16.7942 20.2616 16.6329 20.4 16.4179C20.605 16.2728 20.7588 16.2029 20.8613 16.2029H25.4481C25.5865 16.2029 25.7223 16.2352 25.8581 16.3104C25.9299 16.3454 25.9991 16.4717 26.0657 16.6867V16.9554L26.1169 17.0629V17.4956C27.2521 16.3454 28.8153 15.7676 30.8063 15.7676C33.0383 15.7676 34.7551 16.3266 35.9569 17.4419C37.1946 18.6297 37.8122 20.3444 37.8122 22.575V34.3543V34.3597Z" fill="#EFCA53"/>
</g>
<defs>
<filter id="filter0_d_1207_406" x="0" y="0" width="49" height="51" filterUnits="userSpaceOnUse" color-interpolation-filters="sRGB">
<feFlood flood-opacity="0" result="BackgroundImageFix"/>
<feColorMatrix in="SourceAlpha" type="matrix" values="0 0 0 0 0 0 0 0 0 0 0 0 0 0 0 0 0 0 127 0" result="hardAlpha"/>
<feOffset dy="4"/>
<feGaussianBlur stdDeviation="2"/>
<feComposite in2="hardAlpha" operator="out"/>
<feColorMatrix type="matrix" values="0 0 0 0 0 0 0 0 0 0 0 0 0 0 0 0 0 0 0.25 0"/>
<feBlend mode="normal" in2="BackgroundImageFix" result="effect1_dropShadow_1207_406"/>
<feBlend mode="normal" in="SourceGraphic" in2="effect1_dropShadow_1207_406" result="shape"/>
</filter>
</defs>
</svg>
