<svg width="47" height="47" viewBox="0 0 47 47" fill="none" xmlns="http://www.w3.org/2000/svg">
<g clip-path="url(#clip0_1207_417)">
<g filter="url(#filter0_d_1207_417)">
<path fill-rule="evenodd" clip-rule="evenodd" d="M23.5046 0C36.4772 0 47.0093 10.5321 47.0093 23.5046C47.0093 36.4772 36.4772 47.0093 23.5046 47.0093C10.5321 47.0093 0 36.4772 0 23.5046C0 10.5321 10.5321 0 23.5046 0ZM19.3646 36.006C29.7657 36.006 35.4528 27.3873 35.4528 19.9179C35.4528 19.6716 35.4528 19.4254 35.4411 19.1908C36.5488 18.3882 37.5055 17.3957 38.267 16.2593C37.2586 16.7049 36.1681 17.0098 35.0189 17.1505C36.1916 16.4469 37.0827 15.3447 37.5049 14.0197C36.3946 14.6758 35.1814 15.1396 33.9167 15.3916C32.8847 14.2894 31.419 13.6093 29.7891 13.6093C26.67 13.6093 24.1372 16.1421 24.1372 19.2612C24.1372 19.7068 24.1841 20.1406 24.2896 20.5511C19.5875 20.3166 15.4247 18.0652 12.6339 14.6411C12.135 15.5036 11.8721 16.4824 11.8717 17.4788C11.8702 18.41 12.0998 19.3269 12.5398 20.1476C12.9798 20.9682 13.6165 21.6669 14.3928 22.181C13.4664 22.1575 12.5987 21.8995 11.8365 21.4775V21.5478C11.8365 24.2917 13.783 26.5665 16.3745 27.0942C15.8892 27.2268 15.3884 27.2939 14.8853 27.2936C14.5217 27.2936 14.17 27.2584 13.8183 27.188C14.5335 29.4394 16.6207 31.0694 19.095 31.1162C17.1601 32.629 14.7212 33.5319 12.071 33.5319C11.6137 33.5319 11.1681 33.5084 10.7225 33.4498C13.1968 35.0679 16.1751 36.006 19.3646 36.006Z" fill="#EFCA53"/>
</g>
</g>
<defs>
<filter id="filter0_d_1207_417" x="-4" y="0" width="55.0093" height="55.0098" filterUnits="userSpaceOnUse" color-interpolation-filters="sRGB">
<feFlood flood-opacity="0" result="BackgroundImageFix"/>
<feColorMatrix in="SourceAlpha" type="matrix" values="0 0 0 0 0 0 0 0 0 0 0 0 0 0 0 0 0 0 127 0" result="hardAlpha"/>
<feOffset dy="4"/>
<feGaussianBlur stdDeviation="2"/>
<feComposite in2="hardAlpha" operator="out"/>
<feColorMatrix type="matrix" values="0 0 0 0 0 0 0 0 0 0 0 0 0 0 0 0 0 0 0.25 0"/>
<feBlend mode="normal" in2="BackgroundImageFix" result="effect1_dropShadow_1207_417"/>
<feBlend mode="normal" in="SourceGraphic" in2="effect1_dropShadow_1207_417" result="shape"/>
</filter>
<clipPath id="clip0_1207_417">
<rect width="47.0093" height="47.0093" fill="white"/>
</clipPath>
</defs>
</svg>
